<?xml version="1.0" encoding="UTF-8"?>
<svg xmlns="http://www.w3.org/2000/svg" width="1200" height="800" viewBox="0 0 1200 800">
<rect width="100%" height="100%" fill="#f9f9f9"/>
<g id="connections">
<line x1="100" y1="100" x2="600" y2="100" stroke="#4CAF50" stroke-width="1.6618916" opacity="0.29918143"/>
<line x1="100" y1="100" x2="600" y2="300" stroke="#4CAF50" stroke-width="2.3683538" opacity="0.42028925"/>
<line x1="100" y1="100" x2="600" y2="500" stroke="#4CAF50" stroke-width="2.463632" opacity="0.43662268"/>
<line x1="100" y1="100" x2="600" y2="700" stroke="#F44336" stroke-width="3.3433177" opacity="0.58742595"/>
<line x1="100" y1="700" x2="600" y2="100" stroke="#4CAF50" stroke-width="1.0200603" opacity="0.1891532"/>
<line x1="100" y1="700" x2="600" y2="300" stroke="#F44336" stroke-width="0.93684995" opacity="0.17488857"/>
<line x1="100" y1="700" x2="600" y2="500" stroke="#4CAF50" stroke-width="3.5609288" opacity="0.6247307"/>
<line x1="100" y1="700" x2="600" y2="700" stroke="#4CAF50" stroke-width="3.374566" opacity="0.59278274"/>
<line x1="600" y1="100" x2="1100" y2="400" stroke="#F44336" stroke-width="1.0400816" opacity="0.19258542"/>
<line x1="600" y1="300" x2="1100" y2="400" stroke="#4CAF50" stroke-width="2.564096" opacity="0.45384502"/>
<line x1="600" y1="500" x2="1100" y2="400" stroke="#4CAF50" stroke-width="2.6288862" opacity="0.46495196"/>
<line x1="600" y1="700" x2="1100" y2="400" stroke="#F44336" stroke-width="2.2298076" opacity="0.39653847"/>
</g>
<g id="neurons">
<circle cx="100" cy="100" r="20" fill="#2196F3" stroke="#333" stroke-width="2"/>
<text x="100" y="100" text-anchor="middle" dominant-baseline="middle" fill="white" font-size="12">#0</text>
<circle cx="100" cy="700" r="20" fill="#2196F3" stroke="#333" stroke-width="2"/>
<text x="100" y="700" text-anchor="middle" dominant-baseline="middle" fill="white" font-size="12">#1</text>
<circle cx="600" cy="100" r="20" fill="#9C27B0" stroke="#333" stroke-width="2"/>
<text x="600" y="100" text-anchor="middle" dominant-baseline="middle" fill="white" font-size="12">#0</text>
<circle cx="600" cy="300" r="20" fill="#9C27B0" stroke="#333" stroke-width="2"/>
<text x="600" y="300" text-anchor="middle" dominant-baseline="middle" fill="white" font-size="12">#1</text>
<circle cx="600" cy="500" r="20" fill="#9C27B0" stroke="#333" stroke-width="2"/>
<text x="600" y="500" text-anchor="middle" dominant-baseline="middle" fill="white" font-size="12">#2</text>
<circle cx="600" cy="700" r="20" fill="#9C27B0" stroke="#333" stroke-width="2"/>
<text x="600" y="700" text-anchor="middle" dominant-baseline="middle" fill="white" font-size="12">#3</text>
<circle cx="1100" cy="400" r="20" fill="#FF9800" stroke="#333" stroke-width="2"/>
<text x="1100" y="400" text-anchor="middle" dominant-baseline="middle" fill="white" font-size="12">#0</text>
</g>
<g id="labels">
<text x="100" y="50" text-anchor="middle" font-size="14" font-weight="bold" fill="#333">Input Layer</text>
<text x="100" y="70" text-anchor="middle" font-size="14" font-weight="bold" fill="#333">2 neurons</text>
<text x="600" y="50" text-anchor="middle" font-size="14" font-weight="bold" fill="#333">Hidden Layer</text>
<text x="600" y="70" text-anchor="middle" font-size="14" font-weight="bold" fill="#333">4 neurons</text>
<text x="1100" y="50" text-anchor="middle" font-size="14" font-weight="bold" fill="#333">Output Layer</text>
<text x="1100" y="70" text-anchor="middle" font-size="14" font-weight="bold" fill="#333">1 neurons</text>
</g>
<g id="metadata">
<rect x="890" y="670" width="300" height="120" fill="white" stroke="#333" stroke-width="2" rx="5"/>
<text x="900" y="685" font-size="16" font-weight="bold" fill="#333">AND Network</text>
<text x="900" y="710" font-size="12" fill="#666">Epochs: 0</text>
<text x="900" y="730" font-size="10" fill="#999">Initial network with random weights</text>
</g>
</svg>
