<?xml version="1.0" encoding="UTF-8"?>
<svg xmlns="http://www.w3.org/2000/svg" width="1200" height="800" viewBox="0 0 1200 800">
<rect width="100%" height="100%" fill="#f9f9f9"/>
<g id="connections">
<line x1="100" y1="100" x2="600" y2="100" stroke="#F44336" stroke-width="0.71810913" opacity="0.13739014"/>
<line x1="100" y1="100" x2="600" y2="300" stroke="#F44336" stroke-width="1.8698127" opacity="0.33482504"/>
<line x1="100" y1="100" x2="600" y2="500" stroke="#4CAF50" stroke-width="0.5266987" opacity="0.10457692"/>
<line x1="100" y1="100" x2="600" y2="700" stroke="#4CAF50" stroke-width="2.2676563" opacity="0.40302682"/>
<line x1="100" y1="700" x2="600" y2="100" stroke="#4CAF50" stroke-width="1.3590692" opacity="0.247269"/>
<line x1="100" y1="700" x2="600" y2="300" stroke="#F44336" stroke-width="2.0823984" opacity="0.37126833"/>
<line x1="100" y1="700" x2="600" y2="500" stroke="#F44336" stroke-width="2.565643" opacity="0.45411023"/>
<line x1="100" y1="700" x2="600" y2="700" stroke="#F44336" stroke-width="2.2916248" opacity="0.4071357"/>
<line x1="600" y1="100" x2="1100" y2="400" stroke="#4CAF50" stroke-width="0.87304425" opacity="0.16395044"/>
<line x1="600" y1="300" x2="1100" y2="400" stroke="#F44336" stroke-width="1.7604736" opacity="0.3160812"/>
<line x1="600" y1="500" x2="1100" y2="400" stroke="#F44336" stroke-width="0.7112882" opacity="0.13622084"/>
<line x1="600" y1="700" x2="1100" y2="400" stroke="#4CAF50" stroke-width="2.0948162" opacity="0.37339708"/>
</g>
<g id="neurons">
<circle cx="100" cy="100" r="20" fill="#2196F3" stroke="#333" stroke-width="2"/>
<text x="100" y="100" text-anchor="middle" dominant-baseline="middle" fill="white" font-size="12">#0</text>
<circle cx="100" cy="700" r="20" fill="#2196F3" stroke="#333" stroke-width="2"/>
<text x="100" y="700" text-anchor="middle" dominant-baseline="middle" fill="white" font-size="12">#1</text>
<circle cx="600" cy="100" r="20" fill="#9C27B0" stroke="#333" stroke-width="2"/>
<text x="600" y="100" text-anchor="middle" dominant-baseline="middle" fill="white" font-size="12">#0</text>
<circle cx="600" cy="300" r="20" fill="#9C27B0" stroke="#333" stroke-width="2"/>
<text x="600" y="300" text-anchor="middle" dominant-baseline="middle" fill="white" font-size="12">#1</text>
<circle cx="600" cy="500" r="20" fill="#9C27B0" stroke="#333" stroke-width="2"/>
<text x="600" y="500" text-anchor="middle" dominant-baseline="middle" fill="white" font-size="12">#2</text>
<circle cx="600" cy="700" r="20" fill="#9C27B0" stroke="#333" stroke-width="2"/>
<text x="600" y="700" text-anchor="middle" dominant-baseline="middle" fill="white" font-size="12">#3</text>
<circle cx="1100" cy="400" r="20" fill="#FF9800" stroke="#333" stroke-width="2"/>
<text x="1100" y="400" text-anchor="middle" dominant-baseline="middle" fill="white" font-size="12">#0</text>
</g>
<g id="labels">
<text x="100" y="50" text-anchor="middle" font-size="14" font-weight="bold" fill="#333">Input Layer</text>
<text x="100" y="70" text-anchor="middle" font-size="14" font-weight="bold" fill="#333">2 neurons</text>
<text x="600" y="50" text-anchor="middle" font-size="14" font-weight="bold" fill="#333">Hidden Layer</text>
<text x="600" y="70" text-anchor="middle" font-size="14" font-weight="bold" fill="#333">4 neurons</text>
<text x="1100" y="50" text-anchor="middle" font-size="14" font-weight="bold" fill="#333">Output Layer</text>
<text x="1100" y="70" text-anchor="middle" font-size="14" font-weight="bold" fill="#333">1 neurons</text>
</g>
<g id="metadata">
<rect x="890" y="670" width="300" height="120" fill="white" stroke="#333" stroke-width="2" rx="5"/>
<text x="900" y="685" font-size="16" font-weight="bold" fill="#333">AND Network</text>
<text x="900" y="710" font-size="12" fill="#666">Epochs: 0</text>
<text x="900" y="730" font-size="10" fill="#999">Initial network with random weights</text>
</g>
</svg>
