<?xml version="1.0" encoding="UTF-8"?>
<svg xmlns="http://www.w3.org/2000/svg" width="1200" height="800" viewBox="0 0 1200 800">
<rect width="100%" height="100%" fill="#f9f9f9"/>
<g id="connections">
<line x1="100" y1="100" x2="600" y2="100" stroke="#4CAF50" stroke-width="0.8236222" opacity="0.1554781"/>
<line x1="100" y1="100" x2="600" y2="300" stroke="#4CAF50" stroke-width="3.2271495" opacity="0.5675113"/>
<line x1="100" y1="100" x2="600" y2="500" stroke="#4CAF50" stroke-width="3.0695705" opacity="0.54049784"/>
<line x1="100" y1="100" x2="600" y2="700" stroke="#4CAF50" stroke-width="2.7274675" opacity="0.48185158"/>
<line x1="100" y1="700" x2="600" y2="100" stroke="#4CAF50" stroke-width="2.3765125" opacity="0.42168784"/>
<line x1="100" y1="700" x2="600" y2="300" stroke="#4CAF50" stroke-width="1.4229667" opacity="0.25822288"/>
<line x1="100" y1="700" x2="600" y2="500" stroke="#4CAF50" stroke-width="1.7451587" opacity="0.3134558"/>
<line x1="100" y1="700" x2="600" y2="700" stroke="#F44336" stroke-width="1.4312012" opacity="0.2596345"/>
<line x1="600" y1="100" x2="1100" y2="400" stroke="#4CAF50" stroke-width="2.601692" opacity="0.46029004"/>
<line x1="600" y1="300" x2="1100" y2="400" stroke="#4CAF50" stroke-width="1.704365" opacity="0.3064626"/>
<line x1="600" y1="500" x2="1100" y2="400" stroke="#F44336" stroke-width="0.65351987" opacity="0.1263177"/>
<line x1="600" y1="700" x2="1100" y2="400" stroke="#4CAF50" stroke-width="3.8669946" opacity="0.6771991"/>
</g>
<g id="neurons">
<circle cx="100" cy="100" r="20" fill="#2196F3" stroke="#333" stroke-width="2"/>
<text x="100" y="100" text-anchor="middle" dominant-baseline="middle" fill="white" font-size="12">#0</text>
<circle cx="100" cy="700" r="20" fill="#2196F3" stroke="#333" stroke-width="2"/>
<text x="100" y="700" text-anchor="middle" dominant-baseline="middle" fill="white" font-size="12">#1</text>
<circle cx="600" cy="100" r="20" fill="#9C27B0" stroke="#333" stroke-width="2"/>
<text x="600" y="100" text-anchor="middle" dominant-baseline="middle" fill="white" font-size="12">#0</text>
<circle cx="600" cy="300" r="20" fill="#9C27B0" stroke="#333" stroke-width="2"/>
<text x="600" y="300" text-anchor="middle" dominant-baseline="middle" fill="white" font-size="12">#1</text>
<circle cx="600" cy="500" r="20" fill="#9C27B0" stroke="#333" stroke-width="2"/>
<text x="600" y="500" text-anchor="middle" dominant-baseline="middle" fill="white" font-size="12">#2</text>
<circle cx="600" cy="700" r="20" fill="#9C27B0" stroke="#333" stroke-width="2"/>
<text x="600" y="700" text-anchor="middle" dominant-baseline="middle" fill="white" font-size="12">#3</text>
<circle cx="1100" cy="400" r="20" fill="#FF9800" stroke="#333" stroke-width="2"/>
<text x="1100" y="400" text-anchor="middle" dominant-baseline="middle" fill="white" font-size="12">#0</text>
</g>
<g id="labels">
<text x="100" y="50" text-anchor="middle" font-size="14" font-weight="bold" fill="#333">Input Layer</text>
<text x="100" y="70" text-anchor="middle" font-size="14" font-weight="bold" fill="#333">2 neurons</text>
<text x="600" y="50" text-anchor="middle" font-size="14" font-weight="bold" fill="#333">Hidden Layer</text>
<text x="600" y="70" text-anchor="middle" font-size="14" font-weight="bold" fill="#333">4 neurons</text>
<text x="1100" y="50" text-anchor="middle" font-size="14" font-weight="bold" fill="#333">Output Layer</text>
<text x="1100" y="70" text-anchor="middle" font-size="14" font-weight="bold" fill="#333">1 neurons</text>
</g>
<g id="metadata">
<rect x="890" y="670" width="300" height="120" fill="white" stroke="#333" stroke-width="2" rx="5"/>
<text x="900" y="685" font-size="16" font-weight="bold" fill="#333">XOR Network</text>
<text x="900" y="710" font-size="12" fill="#666">Epochs: 0</text>
<text x="900" y="730" font-size="10" fill="#999">Initial network with random weights</text>
</g>
</svg>
