<?xml version="1.0" encoding="UTF-8"?>
<svg xmlns="http://www.w3.org/2000/svg" width="1200" height="800" viewBox="0 0 1200 800">
<rect width="100%" height="100%" fill="#f9f9f9"/>
<g id="connections">
<line x1="100" y1="100" x2="600" y2="100" stroke="#F44336" stroke-width="3.037538" opacity="0.5350065"/>
<line x1="100" y1="100" x2="600" y2="220" stroke="#F44336" stroke-width="3.5234904" opacity="0.6183127"/>
<line x1="100" y1="100" x2="600" y2="340" stroke="#F44336" stroke-width="3.620256" opacity="0.63490105"/>
<line x1="100" y1="100" x2="600" y2="460" stroke="#4CAF50" stroke-width="2.3099623" opacity="0.41027924"/>
<line x1="100" y1="100" x2="600" y2="580" stroke="#4CAF50" stroke-width="1.2157282" opacity="0.22269626"/>
<line x1="100" y1="100" x2="600" y2="700" stroke="#4CAF50" stroke-width="0.6737765" opacity="0.12979026"/>
<line x1="100" y1="400" x2="600" y2="100" stroke="#4CAF50" stroke-width="3.516285" opacity="0.61707747"/>
<line x1="100" y1="400" x2="600" y2="220" stroke="#4CAF50" stroke-width="1.4542633" opacity="0.263588"/>
<line x1="100" y1="400" x2="600" y2="340" stroke="#4CAF50" stroke-width="2.360137" opacity="0.4188806"/>
<line x1="100" y1="400" x2="600" y2="460" stroke="#F44336" stroke-width="3.6927724" opacity="0.6473325"/>
<line x1="100" y1="400" x2="600" y2="580" stroke="#F44336" stroke-width="1.7389586" opacity="0.31239292"/>
<line x1="100" y1="400" x2="600" y2="700" stroke="#4CAF50" stroke-width="0.89675474" opacity="0.1680151"/>
<line x1="100" y1="700" x2="600" y2="100" stroke="#F44336" stroke-width="3.7416253" opacity="0.65570724"/>
<line x1="100" y1="700" x2="600" y2="220" stroke="#F44336" stroke-width="2.2688289" opacity="0.4032278"/>
<line x1="100" y1="700" x2="600" y2="340" stroke="#F44336" stroke-width="3.5730119" opacity="0.6268021"/>
<line x1="100" y1="700" x2="600" y2="460" stroke="#4CAF50" stroke-width="0.54792833" opacity="0.108216286"/>
<line x1="100" y1="700" x2="600" y2="580" stroke="#F44336" stroke-width="0.6349447" opacity="0.123133376"/>
<line x1="100" y1="700" x2="600" y2="700" stroke="#F44336" stroke-width="2.1714635" opacity="0.3865366"/>
<line x1="600" y1="100" x2="1100" y2="400" stroke="#4CAF50" stroke-width="0.64733064" opacity="0.12525669"/>
<line x1="600" y1="220" x2="1100" y2="400" stroke="#4CAF50" stroke-width="0.795691" opacity="0.1506899"/>
<line x1="600" y1="340" x2="1100" y2="400" stroke="#F44336" stroke-width="0.5610336" opacity="0.110462904"/>
<line x1="600" y1="460" x2="1100" y2="400" stroke="#4CAF50" stroke-width="0.5526105" opacity="0.10901895"/>
<line x1="600" y1="580" x2="1100" y2="400" stroke="#F44336" stroke-width="3.2895198" opacity="0.57820344"/>
<line x1="600" y1="700" x2="1100" y2="400" stroke="#F44336" stroke-width="3.6774976" opacity="0.64471394"/>
</g>
<g id="neurons">
<circle cx="100" cy="100" r="20" fill="#2196F3" stroke="#333" stroke-width="2"/>
<text x="100" y="100" text-anchor="middle" dominant-baseline="middle" fill="white" font-size="12">#0</text>
<circle cx="100" cy="400" r="20" fill="#2196F3" stroke="#333" stroke-width="2"/>
<text x="100" y="400" text-anchor="middle" dominant-baseline="middle" fill="white" font-size="12">#1</text>
<circle cx="100" cy="700" r="20" fill="#2196F3" stroke="#333" stroke-width="2"/>
<text x="100" y="700" text-anchor="middle" dominant-baseline="middle" fill="white" font-size="12">#2</text>
<circle cx="600" cy="100" r="20" fill="#9C27B0" stroke="#333" stroke-width="2"/>
<text x="600" y="100" text-anchor="middle" dominant-baseline="middle" fill="white" font-size="12">#0</text>
<circle cx="600" cy="220" r="20" fill="#9C27B0" stroke="#333" stroke-width="2"/>
<text x="600" y="220" text-anchor="middle" dominant-baseline="middle" fill="white" font-size="12">#1</text>
<circle cx="600" cy="340" r="20" fill="#9C27B0" stroke="#333" stroke-width="2"/>
<text x="600" y="340" text-anchor="middle" dominant-baseline="middle" fill="white" font-size="12">#2</text>
<circle cx="600" cy="460" r="20" fill="#9C27B0" stroke="#333" stroke-width="2"/>
<text x="600" y="460" text-anchor="middle" dominant-baseline="middle" fill="white" font-size="12">#3</text>
<circle cx="600" cy="580" r="20" fill="#9C27B0" stroke="#333" stroke-width="2"/>
<text x="600" y="580" text-anchor="middle" dominant-baseline="middle" fill="white" font-size="12">#4</text>
<circle cx="600" cy="700" r="20" fill="#9C27B0" stroke="#333" stroke-width="2"/>
<text x="600" y="700" text-anchor="middle" dominant-baseline="middle" fill="white" font-size="12">#5</text>
<circle cx="1100" cy="400" r="20" fill="#FF9800" stroke="#333" stroke-width="2"/>
<text x="1100" y="400" text-anchor="middle" dominant-baseline="middle" fill="white" font-size="12">#0</text>
</g>
<g id="labels">
<text x="100" y="50" text-anchor="middle" font-size="14" font-weight="bold" fill="#333">Input Layer</text>
<text x="100" y="70" text-anchor="middle" font-size="14" font-weight="bold" fill="#333">3 neurons</text>
<text x="600" y="50" text-anchor="middle" font-size="14" font-weight="bold" fill="#333">Hidden Layer</text>
<text x="600" y="70" text-anchor="middle" font-size="14" font-weight="bold" fill="#333">6 neurons</text>
<text x="1100" y="50" text-anchor="middle" font-size="14" font-weight="bold" fill="#333">Output Layer</text>
<text x="1100" y="70" text-anchor="middle" font-size="14" font-weight="bold" fill="#333">1 neurons</text>
</g>
<g id="metadata">
<rect x="890" y="670" width="300" height="120" fill="white" stroke="#333" stroke-width="2" rx="5"/>
<text x="900" y="685" font-size="16" font-weight="bold" fill="#333">3-Bit Parity Network</text>
<text x="900" y="710" font-size="12" fill="#666">Epochs: 0</text>
<text x="900" y="730" font-size="10" fill="#999">Initial network with random weights</text>
</g>
</svg>
