<?xml version="1.0" encoding="UTF-8"?>
<svg xmlns="http://www.w3.org/2000/svg" width="1200" height="800" viewBox="0 0 1200 800">
<rect width="100%" height="100%" fill="#f9f9f9"/>
<g id="connections">
<line x1="100" y1="100" x2="600" y2="100" stroke="#4CAF50" stroke-width="4" opacity="0.70000005"/>
<line x1="100" y1="100" x2="600" y2="220" stroke="#F44336" stroke-width="4" opacity="0.70000005"/>
<line x1="100" y1="100" x2="600" y2="340" stroke="#4CAF50" stroke-width="4" opacity="0.70000005"/>
<line x1="100" y1="100" x2="600" y2="460" stroke="#4CAF50" stroke-width="4" opacity="0.70000005"/>
<line x1="100" y1="100" x2="600" y2="580" stroke="#4CAF50" stroke-width="1.3042762" opacity="0.23787594"/>
<line x1="100" y1="100" x2="600" y2="700" stroke="#4CAF50" stroke-width="0.8792125" opacity="0.16500786"/>
<line x1="100" y1="400" x2="600" y2="100" stroke="#4CAF50" stroke-width="4" opacity="0.70000005"/>
<line x1="100" y1="400" x2="600" y2="220" stroke="#4CAF50" stroke-width="4" opacity="0.70000005"/>
<line x1="100" y1="400" x2="600" y2="340" stroke="#F44336" stroke-width="4" opacity="0.70000005"/>
<line x1="100" y1="400" x2="600" y2="460" stroke="#4CAF50" stroke-width="3.652318" opacity="0.6403974"/>
<line x1="100" y1="400" x2="600" y2="580" stroke="#F44336" stroke-width="0.67415303" opacity="0.12985481"/>
<line x1="100" y1="400" x2="600" y2="700" stroke="#F44336" stroke-width="1.3736496" opacity="0.24976853"/>
<line x1="100" y1="700" x2="600" y2="100" stroke="#F44336" stroke-width="0.8959925" opacity="0.16788444"/>
<line x1="100" y1="700" x2="600" y2="220" stroke="#F44336" stroke-width="4" opacity="0.70000005"/>
<line x1="100" y1="700" x2="600" y2="340" stroke="#F44336" stroke-width="4" opacity="0.70000005"/>
<line x1="100" y1="700" x2="600" y2="460" stroke="#F44336" stroke-width="2.17978" opacity="0.38796228"/>
<line x1="100" y1="700" x2="600" y2="580" stroke="#F44336" stroke-width="4" opacity="0.70000005"/>
<line x1="100" y1="700" x2="600" y2="700" stroke="#F44336" stroke-width="4" opacity="0.70000005"/>
<line x1="600" y1="100" x2="1100" y2="100" stroke="#4CAF50" stroke-width="3.334049" opacity="0.585837"/>
<line x1="600" y1="100" x2="1100" y2="700" stroke="#F44336" stroke-width="0.85029256" opacity="0.16005015"/>
<line x1="600" y1="220" x2="1100" y2="100" stroke="#F44336" stroke-width="4" opacity="0.70000005"/>
<line x1="600" y1="220" x2="1100" y2="700" stroke="#4CAF50" stroke-width="4" opacity="0.70000005"/>
<line x1="600" y1="340" x2="1100" y2="100" stroke="#F44336" stroke-width="4" opacity="0.70000005"/>
<line x1="600" y1="340" x2="1100" y2="700" stroke="#4CAF50" stroke-width="4" opacity="0.70000005"/>
<line x1="600" y1="460" x2="1100" y2="100" stroke="#4CAF50" stroke-width="4" opacity="0.70000005"/>
<line x1="600" y1="460" x2="1100" y2="700" stroke="#4CAF50" stroke-width="4" opacity="0.70000005"/>
<line x1="600" y1="580" x2="1100" y2="100" stroke="#4CAF50" stroke-width="4" opacity="0.70000005"/>
<line x1="600" y1="580" x2="1100" y2="700" stroke="#F44336" stroke-width="4" opacity="0.70000005"/>
<line x1="600" y1="700" x2="1100" y2="100" stroke="#4CAF50" stroke-width="4" opacity="0.70000005"/>
<line x1="600" y1="700" x2="1100" y2="700" stroke="#F44336" stroke-width="4" opacity="0.70000005"/>
</g>
<g id="neurons">
<circle cx="100" cy="100" r="20" fill="#2196F3" stroke="#333" stroke-width="2"/>
<text x="100" y="100" text-anchor="middle" dominant-baseline="middle" fill="white" font-size="12">#0</text>
<circle cx="100" cy="400" r="20" fill="#2196F3" stroke="#333" stroke-width="2"/>
<text x="100" y="400" text-anchor="middle" dominant-baseline="middle" fill="white" font-size="12">#1</text>
<circle cx="100" cy="700" r="20" fill="#2196F3" stroke="#333" stroke-width="2"/>
<text x="100" y="700" text-anchor="middle" dominant-baseline="middle" fill="white" font-size="12">#2</text>
<circle cx="600" cy="100" r="20" fill="#9C27B0" stroke="#333" stroke-width="2"/>
<text x="600" y="100" text-anchor="middle" dominant-baseline="middle" fill="white" font-size="12">#0</text>
<circle cx="600" cy="220" r="20" fill="#9C27B0" stroke="#333" stroke-width="2"/>
<text x="600" y="220" text-anchor="middle" dominant-baseline="middle" fill="white" font-size="12">#1</text>
<circle cx="600" cy="340" r="20" fill="#9C27B0" stroke="#333" stroke-width="2"/>
<text x="600" y="340" text-anchor="middle" dominant-baseline="middle" fill="white" font-size="12">#2</text>
<circle cx="600" cy="460" r="20" fill="#9C27B0" stroke="#333" stroke-width="2"/>
<text x="600" y="460" text-anchor="middle" dominant-baseline="middle" fill="white" font-size="12">#3</text>
<circle cx="600" cy="580" r="20" fill="#9C27B0" stroke="#333" stroke-width="2"/>
<text x="600" y="580" text-anchor="middle" dominant-baseline="middle" fill="white" font-size="12">#4</text>
<circle cx="600" cy="700" r="20" fill="#9C27B0" stroke="#333" stroke-width="2"/>
<text x="600" y="700" text-anchor="middle" dominant-baseline="middle" fill="white" font-size="12">#5</text>
<circle cx="1100" cy="100" r="20" fill="#FF9800" stroke="#333" stroke-width="2"/>
<text x="1100" y="100" text-anchor="middle" dominant-baseline="middle" fill="white" font-size="12">#0</text>
<circle cx="1100" cy="700" r="20" fill="#FF9800" stroke="#333" stroke-width="2"/>
<text x="1100" y="700" text-anchor="middle" dominant-baseline="middle" fill="white" font-size="12">#1</text>
</g>
<g id="labels">
<text x="100" y="50" text-anchor="middle" font-size="14" font-weight="bold" fill="#333">Input Layer</text>
<text x="100" y="70" text-anchor="middle" font-size="14" font-weight="bold" fill="#333">3 neurons</text>
<text x="600" y="50" text-anchor="middle" font-size="14" font-weight="bold" fill="#333">Hidden Layer</text>
<text x="600" y="70" text-anchor="middle" font-size="14" font-weight="bold" fill="#333">6 neurons</text>
<text x="1100" y="50" text-anchor="middle" font-size="14" font-weight="bold" fill="#333">Output Layer</text>
<text x="1100" y="70" text-anchor="middle" font-size="14" font-weight="bold" fill="#333">2 neurons</text>
</g>
<g id="metadata">
<rect x="890" y="670" width="300" height="120" fill="white" stroke="#333" stroke-width="2" rx="5"/>
<text x="900" y="685" font-size="16" font-weight="bold" fill="#333">Full Adder Network - Trained - Epoch 1223</text>
<text x="900" y="710" font-size="12" fill="#666">Epochs: 1223</text>
<text x="900" y="730" font-size="10" fill="#999">Training checkpoint after 1223 epochs</text>
</g>
</svg>
